<svg width="186" height="186" viewBox="0 0 186 186" fill="none" xmlns="http://www.w3.org/2000/svg">
<mask id="mask0_0_1085" style="mask-type:alpha" maskUnits="userSpaceOnUse" x="0" y="0" width="186" height="186">
<rect width="186" height="186" fill="#D9D9D9"/>
</mask>
<g mask="url(#mask0_0_1085)">
<path d="M88.8577 150.156H49.1389C38.9115 150.156 30.1992 146.58 23.002 139.428C15.8049 132.276 12.2063 123.525 12.2063 113.173C12.2063 103.967 15.4006 95.7499 21.7892 88.5204C28.1778 81.2922 36.0272 77.3552 45.3376 76.7094C47.2453 64.9165 52.7356 55.1644 61.8082 47.4532C70.8822 39.7432 81.3589 35.8882 93.2384 35.8882C106.076 35.8882 117.097 40.4065 126.302 49.443C135.508 58.4795 140.498 69.5607 141.273 82.6866V92.7015H146.043C153.912 92.9896 160.504 95.8067 165.821 101.153C171.136 106.498 173.794 113.2 173.794 121.258C173.794 129.278 170.982 136.1 165.36 141.722C159.737 147.345 152.916 150.156 144.896 150.156H97.3362V89.929L114.386 106.934L120.439 101.033L93.0001 73.7896L65.7549 101.033L71.8077 106.934L88.8577 89.929V150.156Z" fill="#09A8FA" fill-opacity="0.2"/>
<path d="M53.0195 173.246V175.238H40.4414V166.508H52.8828V168.52H42.9023V173.246H53.0195ZM54.7969 178.578V180.629H38.5273V178.578H54.7969ZM62.4586 166.742V173.598H58.1031V176.781C59.7926 176.762 61.4039 176.693 63.2203 176.41L63.3961 178.402C61.0719 178.793 59.1578 178.852 56.9508 178.852H55.7203V171.605H60.0562V168.754H55.7008V166.742H62.4586ZM70.5836 165.023V182.797H68.2203V173.754H66.5016V181.938H64.2164V165.316H66.5016V171.742H68.2203V165.023H70.5836ZM86.1164 166.664V168.793C86.1164 171.234 86.1164 173.656 85.4719 177.328L82.9523 177.113C83.6164 173.695 83.6164 171.156 83.6359 168.793V168.656H73.5773V166.664H86.1164ZM88.1086 178.422V180.473H71.8977V178.422H88.1086ZM96.7523 166.332C99.1156 166.332 100.854 168.188 100.873 170.805C100.854 173.422 99.1156 175.277 96.7523 175.277C94.3891 175.277 92.6703 173.422 92.6703 170.805C92.6703 168.188 94.3891 166.332 96.7523 166.332ZM96.7523 168.441C95.6586 168.441 94.8969 169.34 94.8969 170.805C94.8969 172.289 95.6586 173.168 96.7523 173.168C97.8266 173.168 98.5883 172.289 98.6078 170.805C98.5883 169.34 97.8266 168.441 96.7523 168.441ZM107.866 165.043V178.266H105.502V172.055H104.037V177.68H101.733V165.355H104.037V170.023H105.502V165.043H107.866ZM108.315 180.492V182.484H95.8148V176.547H98.3148V180.492H108.315ZM127.779 173.246V175.238H115.201V166.508H127.642V168.52H117.662V173.246H127.779ZM129.556 178.578V180.629H113.287V178.578H129.556ZM146.222 173.852V175.824H129.952V173.852H136.847V172.777H131.984V168.109H141.749V167.191H131.945V165.277H144.249V169.887H134.464V170.883H144.581V172.777H139.327V173.852H146.222ZM134.484 176.469V177.641H141.847V176.469H144.308V182.602H132.003V176.469H134.484ZM134.484 180.688H141.847V179.496H134.484V180.688Z" fill="#3B3B3B"/>
</g>
</svg>
