<svg width="26" height="29" viewBox="0 0 26 29" fill="none" xmlns="http://www.w3.org/2000/svg">
<path d="M4.875 29C3.98125 29 3.21615 28.6845 2.57969 28.0535C1.94323 27.4225 1.625 26.6639 1.625 25.7778V4.83333H0V1.61111H8.125V0H17.875V1.61111H26V4.83333H24.375V25.7778C24.375 26.6639 24.0568 27.4225 23.4203 28.0535C22.7839 28.6845 22.0187 29 21.125 29H4.875ZM21.125 4.83333H4.875V25.7778H21.125V4.83333ZM8.125 22.5556H11.375V8.05556H8.125V22.5556ZM14.625 22.5556H17.875V8.05556H14.625V22.5556Z" fill="#3B3B3B"/>
<path d="M4.875 29C3.98125 29 3.21615 28.6845 2.57969 28.0535C1.94323 27.4225 1.625 26.6639 1.625 25.7778V4.83333H0V1.61111H8.125V0H17.875V1.61111H26V4.83333H24.375V25.7778C24.375 26.6639 24.0568 27.4225 23.4203 28.0535C22.7839 28.6845 22.0187 29 21.125 29H4.875ZM21.125 4.83333H4.875V25.7778H21.125V4.83333ZM8.125 22.5556H11.375V8.05556H8.125V22.5556ZM14.625 22.5556H17.875V8.05556H14.625V22.5556Z" fill="white" fill-opacity="0.3"/>
</svg>
