<svg width="24" height="25" viewBox="0 0 24 25" fill="none" xmlns="http://www.w3.org/2000/svg">
<g id="search">
<mask id="mask0_1_800" style="mask-type:alpha" maskUnits="userSpaceOnUse" x="0" y="0" width="24" height="25">
<rect id="Bounding box" y="0.5" width="24" height="24" fill="#D9D9D9"/>
</mask>
<g mask="url(#mask0_1_800)">
<path id="search_2" d="M19.4846 20.6538L13.2231 14.3923C12.7231 14.8179 12.1481 15.1474 11.4981 15.3808C10.8481 15.6141 10.1949 15.7308 9.53861 15.7308C7.93694 15.7308 6.58136 15.1763 5.47186 14.0675C4.36253 12.9587 3.80786 11.6039 3.80786 10.0033C3.80786 8.40242 4.36228 7.04651 5.47111 5.93551C6.57994 4.82467 7.9347 4.26926 9.53536 4.26926C11.1362 4.26926 12.4921 4.82392 13.6031 5.93326C14.7139 7.04276 15.2694 8.39834 15.2694 10C15.2694 10.6948 15.1463 11.3673 14.9001 12.0173C14.6539 12.6673 14.3309 13.223 13.9309 13.6845L20.1924 19.9463L19.4846 20.6538ZM9.53861 14.7308C10.8654 14.7308 11.9856 14.274 12.8991 13.3605C13.8126 12.4472 14.2694 11.327 14.2694 10C14.2694 8.67301 13.8126 7.55284 12.8991 6.63951C11.9856 5.72601 10.8654 5.26926 9.53861 5.26926C8.21161 5.26926 7.09144 5.72601 6.17811 6.63951C5.26461 7.55284 4.80786 8.67301 4.80786 10C4.80786 11.327 5.26461 12.4472 6.17811 13.3605C7.09144 14.274 8.21161 14.7308 9.53861 14.7308Z" fill="#1C1B1F"/>
</g>
</g>
</svg>
